<?xml version="1.0" encoding="utf-8"?>
<!-- Generator: Adobe Illustrator 19.2.0, SVG Export Plug-In . SVG Version: 6.00 Build 0)  -->
<svg version="1.1" id="Layer_1" xmlns="http://www.w3.org/2000/svg" xmlns:xlink="http://www.w3.org/1999/xlink" x="0px" y="0px"
	 viewBox="0 0 960 960" style="enable-background:new 0 0 960 960;" xml:space="preserve">
<style type="text/css">
	.st0{fill:#754C24;}
	.st1{fill:#8C6239;}
	.st2{fill:#E6E6E6;}
	.st3{fill:#F2F2F2;}
	.st4{fill:#17B139;}
	.st5{fill:#C1272D;}
	.st6{fill:#F7ED39;}
	.st7{fill:#093491;}
	.st8{fill:#02A4E6;}
	.st9{fill:#F2027F;}
	.st10{fill:#FFFFFF;}
</style>
<g>
	<path class="st0" d="M486.9,694.6h-13.8c-5.5,0-10-4.5-10-10V514.5c0-5.5,4.5-10,10-10h13.8c5.5,0,10,4.5,10,10v170.1
		C496.9,690.1,492.4,694.6,486.9,694.6z"/>
	<path class="st1" d="M488.2,297.6h-16.4c-4.8,0-8.7-3.9-8.7-8.7V170.5c0-9.4,7.6-16.9,16.9-16.9l0,0c9.4,0,16.9,7.6,16.9,16.9
		v118.3C496.9,293.7,493,297.6,488.2,297.6z"/>
	<rect x="333.1" y="678.2" class="st0" width="293.7" height="33.9"/>
	<path class="st1" d="M285.5,805.1L285.5,805.1c-8.7-3.5-12.8-13.4-9.3-22.1l197.3-485.5l31.4,12.8L307.6,795.8
		C304.1,804.5,294.2,808.7,285.5,805.1z"/>
	<path class="st1" d="M680.7,805.1L680.7,805.1c8.7-3.5,12.8-13.4,9.3-22.1L492.7,297.6l-31.4,12.8l197.3,485.5
		C662.2,804.5,672.1,808.7,680.7,805.1z"/>
	<rect x="193.2" y="246.9" class="st2" width="573.6" height="373.8"/>
	<rect x="193.2" y="233.3" class="st3" width="573.6" height="373.8"/>
	<path class="st4" d="M470.2,418.3c16-21,41.2-34.5,69.7-34.5c7.3,0,14.3,1,21,2.6c0-0.9,0.1-1.7,0.1-2.6
		c0-48.5-39.3-87.8-87.8-87.8s-87.8,39.3-87.8,87.8c0,0.5,0.1,0.9,0.1,1.4c4.9-0.8,9.9-1.4,15-1.4
		C428.9,383.7,454.1,397.3,470.2,418.3z"/>
	<path class="st5" d="M452.2,468.9c-37.9-9.3-66.1-43.2-66.7-83.8c-41.3,7.1-72.8,43.1-72.8,86.4c0,48.5,39.3,87.8,87.8,87.8
		c28.4,0,53.6-13.6,69.7-34.5C458.8,510,452,491.6,452,471.5C452,470.6,452.1,469.8,452.2,468.9z"/>
	<path class="st6" d="M452.2,468.9c0.6-19,7.2-36.5,18-50.6c-16-21-41.2-34.5-69.7-34.5c-5.1,0-10.1,0.5-15,1.4
		C386.1,425.7,414.3,459.6,452.2,468.9z"/>
	<path class="st7" d="M560.8,386.4c-1.3,42.2-32.2,76.8-72.6,83.8c0,0.5,0.1,0.9,0.1,1.4c0,20.1-6.8,38.5-18.1,53.3
		c16,21,41.2,34.5,69.7,34.5c48.5,0,87.8-39.3,87.8-87.8C627.6,430.3,599.2,395.8,560.8,386.4z"/>
	<path class="st8" d="M470.2,418.3c11.1,14.4,17.7,32.4,18,51.9c40.5-7,71.4-41.6,72.6-83.8c-6.7-1.7-13.7-2.6-21-2.6
		C511.4,383.7,486.2,397.3,470.2,418.3z"/>
	<path class="st9" d="M488.2,470.2c-4.9,0.8-9.9,1.4-15,1.4c-7.3,0-14.3-1-21-2.6c0,0.9-0.1,1.7-0.1,2.6c0,20.1,6.8,38.5,18.1,53.3
		c11.3-14.8,18.1-33.2,18.1-53.3C488.3,471.1,488.2,470.6,488.2,470.2z"/>
	<path class="st10" d="M452.2,468.9c6.7,1.7,13.7,2.6,21,2.6c5.1,0,10.1-0.5,15-1.4c-0.3-19.5-7-37.4-18-51.9
		C459.3,432.4,452.7,449.9,452.2,468.9z"/>
</g>
</svg>
